<?xml version="1.0" standalone="no"?>
<!DOCTYPE svg PUBLIC "-//W3C//DTD SVG 20010904//EN"
 "http://www.w3.org/TR/2001/REC-SVG-20010904/DTD/svg10.dtd">
<svg version="1.0" xmlns="http://www.w3.org/2000/svg"
 width="800.000000pt" height="800.000000pt" viewBox="0 0 800.000000 800.000000"
 preserveAspectRatio="xMidYMid meet">
<metadata>
Created by potrace 1.14, written by Peter Selinger 2001-2017
</metadata>
<g transform="translate(0.000000,800.000000) scale(0.100000,-0.100000)"
fill="#000000" stroke="none">
<path d="M2879 5570 c-4 -8 -9 -10 -9 -5 0 6 -4 4 -9 -4 -9 -15 -3 -53 8 -47
4 3 7 -4 7 -14 0 -10 -4 -17 -7 -14 -4 2 -11 -1 -15 -7 -4 -8 -3 -9 4 -5 7 4
12 2 12 -4 0 -6 5 -8 10 -5 6 3 10 1 10 -5 0 -7 6 -10 14 -7 7 3 19 0 25 -6 9
-9 10 -7 5 8 -7 17 -6 18 8 7 9 -7 29 -12 45 -10 16 1 35 -2 42 -7 9 -5 12 -4
8 2 -5 8 42 10 106 4 5 -1 5 -6 1 -13 -4 -7 -3 -8 5 -4 6 4 9 12 6 17 -4 5 -2
9 2 9 9 0 33 -25 48 -50 7 -12 6 -13 -6 -3 -12 10 -13 4 -10 -34 2 -25 -1 -49
-7 -55 -7 -7 -5 -19 4 -36 9 -17 10 -30 4 -36 -13 -13 -13 -29 -1 -21 5 3 13
0 17 -6 4 -8 3 -9 -4 -5 -8 5 -12 -1 -12 -14 0 -12 -4 -18 -10 -15 -5 3 -10 1
-10 -4 0 -6 8 -11 18 -12 10 0 12 -3 5 -6 -7 -2 -13 -9 -13 -14 0 -6 5 -7 11
-3 8 5 8 1 0 -14 -16 -30 -14 -36 7 -21 14 11 15 11 5 -1 -16 -18 -17 -67 -1
-72 7 -3 5 -7 -6 -11 -11 -5 -15 -3 -10 5 4 7 3 8 -4 4 -18 -11 -14 -26 6 -27
10 0 12 -3 5 -6 -7 -2 -13 -9 -13 -14 0 -6 5 -7 12 -3 7 5 8 3 3 -7 -5 -7 -8
-28 -7 -47 2 -21 -1 -31 -8 -27 -5 3 -10 1 -10 -4 0 -6 8 -11 18 -12 9 0 12
-3 5 -5 -8 -4 -9 -13 -3 -29 6 -16 6 -27 -2 -31 -7 -5 -8 -2 -3 7 5 8 4 11 0
6 -5 -4 -9 -16 -10 -27 -1 -16 1 -18 13 -7 11 9 11 3 -3 -23 -18 -34 -18 -35
0 -20 13 10 16 11 11 2 -13 -21 -9 -84 6 -94 10 -8 9 -9 -4 -5 -9 3 -19 -1
-22 -9 -3 -8 -2 -13 3 -10 5 3 12 -1 15 -10 3 -8 2 -12 -4 -9 -6 3 -10 3 -11
-2 0 -4 -2 -18 -3 -30 -1 -12 1 -20 6 -17 13 8 9 -31 -4 -45 -8 -9 -8 -11 -2
-8 7 4 15 0 18 -9 3 -8 2 -12 -4 -9 -6 3 -10 3 -11 -2 0 -4 -2 -18 -3 -30 -2
-17 1 -20 9 -13 9 8 11 4 7 -15 -2 -15 -9 -22 -16 -18 -6 4 -5 -1 3 -11 18
-22 23 -60 6 -46 -14 11 -14 -25 0 -37 4 -5 5 -2 0 6 -5 9 -4 12 3 8 5 -4 8
-16 5 -27 -3 -11 -10 -17 -17 -13 -6 4 -5 -1 3 -10 7 -9 11 -28 8 -43 -3 -15
2 -31 12 -42 15 -15 15 -15 -1 -9 -21 7 -24 -3 -6 -21 9 -9 8 -12 -7 -12 -18
0 -18 0 1 -16 10 -8 13 -13 7 -9 -16 8 -17 -7 -1 -23 7 -7 8 -12 4 -12 -5 0
-2 -8 5 -17 8 -9 9 -14 3 -10 -16 9 -24 -26 -11 -48 7 -13 6 -16 -2 -11 -16
10 -14 -9 3 -23 12 -10 12 -16 1 -38 -8 -15 -12 -29 -10 -33 2 -4 6 -19 9 -34
4 -21 2 -26 -9 -22 -9 3 -12 0 -9 -9 3 -8 13 -11 22 -8 13 4 14 3 3 -5 -18
-13 -16 -69 3 -100 7 -12 4 -12 -15 -2 l-24 13 20 -23 c11 -13 14 -20 8 -16
-7 4 -13 2 -13 -3 0 -6 6 -11 13 -11 6 0 4 -5 -5 -11 -10 -5 -18 -15 -18 -22
0 -7 4 -6 10 3 7 11 9 3 8 -28 -1 -28 4 -47 13 -53 11 -7 11 -9 1 -9 -8 0 -10
-5 -6 -12 5 -8 2 -9 -11 -4 -18 6 -18 6 1 -15 10 -12 13 -19 7 -15 -7 4 -13 3
-13 -3 0 -5 6 -12 13 -14 10 -4 10 -6 0 -6 -7 -1 -13 -5 -13 -11 0 -5 6 -8 13
-6 6 1 9 1 4 -1 -4 -3 -4 -10 -1 -15 5 -7 2 -8 -6 -3 -9 5 -11 2 -7 -11 10
-32 11 -140 2 -155 -5 -7 -10 -22 -10 -31 -1 -13 2 -15 11 -7 8 7 14 6 20 -2
4 -8 3 -9 -4 -5 -8 5 -12 0 -12 -13 0 -11 -4 -22 -10 -26 -5 -3 -7 -12 -4 -20
4 -8 10 -12 15 -9 5 3 6 -3 2 -12 -5 -13 -3 -15 8 -9 11 7 11 5 -1 -10 -8 -10
-14 -21 -13 -24 1 -3 -1 -8 -4 -11 -4 -3 -3 1 2 9 5 9 4 12 -3 7 -18 -11 -14
-26 6 -26 14 0 15 -2 2 -10 -12 -8 -12 -10 5 -11 17 -1 16 -2 -5 -9 -21 -7
-22 -8 -5 -9 11 -1 16 -4 10 -9 -6 -4 -10 -17 -9 -30 1 -18 -1 -20 -13 -10
-11 9 -16 9 -24 -3 -8 -13 -14 -5 -9 16 1 5 -7 1 -18 -8 -13 -12 -22 -15 -27
-8 -3 6 -13 11 -21 11 -9 0 -12 -5 -8 -12 5 -7 3 -8 -7 -2 -21 13 -39 14 -39
1 0 -7 -4 -5 -10 3 -8 13 -13 13 -31 2 -16 -10 -19 -10 -13 -1 5 8 2 11 -8 6
-9 -3 -21 0 -27 6 -9 9 -11 7 -5 -8 6 -16 4 -18 -6 -8 -11 10 -17 10 -28 0
-12 -9 -16 -9 -19 1 -6 16 -33 16 -33 0 0 -8 -3 -9 -8 -3 -11 16 -46 19 -36 3
6 -11 5 -11 -8 0 -12 9 -18 10 -23 2 -5 -8 -11 -8 -21 1 -11 9 -14 8 -14 -5 0
-10 -4 -15 -8 -12 -4 2 -8 -6 -8 -19 0 -13 3 -22 7 -19 9 5 21 -25 13 -37 -3
-5 -2 -9 3 -8 4 1 15 1 23 0 13 -1 13 -2 0 -11 -13 -9 -13 -10 0 -11 8 -1 20
-1 25 1 6 1 5 -4 -2 -10 -8 -9 -6 -18 10 -37 12 -13 22 -30 22 -36 0 -6 11
-17 25 -24 14 -7 21 -13 17 -13 -4 0 5 -12 20 -27 15 -16 31 -27 35 -26 4 2
10 -6 13 -17 4 -12 15 -20 28 -20 18 0 19 -2 7 -10 -13 -8 -12 -10 3 -10 9 0
17 -4 17 -10 0 -5 7 -10 15 -10 8 0 15 -4 15 -9 0 -5 9 -13 20 -16 12 -4 30
-16 42 -28 11 -12 18 -16 14 -10 -5 9 -2 11 8 7 9 -3 16 -12 16 -19 0 -9 8
-11 22 -7 14 3 19 2 14 -6 -5 -8 0 -12 13 -12 11 0 23 -5 26 -10 4 -6 11 -8
16 -5 5 4 9 1 9 -5 0 -7 6 -10 14 -7 8 3 16 1 18 -4 2 -5 13 -11 26 -12 12 0
22 -5 22 -9 0 -4 12 -8 26 -8 14 0 23 -4 20 -8 -3 -5 8 -8 23 -7 23 1 28 -2
23 -14 -5 -14 -3 -14 11 -2 13 10 17 10 17 1 0 -7 8 -10 20 -7 11 3 20 0 20
-6 0 -7 5 -5 10 3 8 12 10 12 10 -5 0 -11 4 -15 8 -10 10 14 32 17 32 5 0 -5
5 -10 11 -10 5 0 7 6 3 13 -6 10 -4 10 7 0 7 -7 24 -13 37 -13 14 0 21 -4 16
-11 -5 -8 -1 -8 14 0 15 8 22 8 25 -2 4 -9 6 -8 6 2 1 11 4 11 18 0 15 -12 16
-12 8 1 -6 12 -5 13 6 3 17 -17 42 -17 34 0 -4 6 -1 5 7 -3 14 -16 88 -21 88
-6 0 6 5 5 12 -2 7 -7 17 -8 30 -1 10 5 18 6 18 2 0 -4 14 -8 30 -8 17 0 30 5
30 10 0 6 5 3 10 -5 5 -8 10 -10 10 -5 0 6 30 10 70 9 43 0 70 4 70 10 0 6 5
4 10 -4 5 -8 10 -10 10 -4 0 6 10 10 23 9 12 -1 30 2 40 7 12 6 17 5 17 -4 0
-10 2 -10 9 1 7 10 10 11 16 1 6 -10 11 -9 22 5 7 11 13 13 13 6 0 -7 5 -9 13
-4 20 12 37 12 37 0 0 -7 5 -4 10 5 6 10 19 15 30 13 11 -2 20 2 20 8 0 7 4 6
10 -3 7 -11 10 -11 10 -2 0 7 5 10 10 7 6 -3 10 -1 10 6 0 7 3 9 7 6 3 -4 13
-1 21 6 13 9 14 9 8 0 -9 -16 6 -17 21 -2 8 8 35 15 76 18 5 1 6 5 2 11 -3 5
7 8 22 7 16 -1 27 3 26 9 -1 6 10 11 25 10 15 -1 26 4 25 10 -1 8 6 10 19 6
16 -4 19 -2 13 9 -7 12 -6 12 7 1 13 -10 17 -10 22 3 3 9 10 14 15 10 5 -3 12
-1 16 5 4 6 11 8 16 5 5 -4 9 -1 9 5 0 7 7 9 16 6 8 -3 12 -2 9 4 -3 6 3 10
13 10 11 0 25 7 32 15 7 9 15 13 17 11 3 -3 14 4 26 15 19 17 37 24 59 20 4 0
4 7 1 16 -4 10 -2 14 4 10 6 -4 14 -1 16 5 4 10 8 9 17 -2 10 -13 11 -13 7 2
-3 9 2 22 11 30 13 11 14 11 7 -1 -6 -10 -4 -12 4 -7 7 5 10 14 7 22 -3 8 0
11 8 8 8 -3 16 4 19 17 4 14 11 20 20 16 10 -4 19 4 27 23 8 20 17 27 28 23
10 -4 14 -3 10 2 -4 4 0 14 10 21 14 11 14 14 2 14 -9 1 -6 5 8 10 12 5 22 17
22 25 0 10 5 13 12 9 8 -5 9 -2 5 9 -4 12 -1 17 11 17 15 0 15 2 2 10 -13 8
-11 11 8 16 12 4 22 11 22 16 0 5 -4 7 -8 4 -5 -3 -9 1 -9 9 0 8 3 13 5 10 8
-8 34 34 27 45 -3 6 0 10 7 10 11 0 10 2 0 9 -11 6 -10 10 4 15 13 5 15 9 6
18 -15 15 -15 28 -1 28 5 0 7 -5 3 -12 -4 -6 -3 -8 3 -5 6 4 8 18 5 32 -2 14
2 33 9 42 8 9 9 14 3 10 -7 -4 -14 0 -17 8 -4 9 -1 12 7 9 8 -3 17 0 22 7 4 7
3 10 -4 5 -6 -3 -13 -2 -16 3 -4 5 -2 12 4 16 5 3 10 11 10 16 0 6 -4 8 -9 4
-6 -3 -8 4 -5 15 2 11 6 29 8 40 3 11 1 22 -5 25 -5 4 -9 20 -9 36 0 17 -5 39
-10 49 -6 12 -7 21 0 25 5 3 7 12 4 20 -4 8 -10 13 -14 10 -5 -3 -12 0 -16 6
-4 7 -3 9 4 5 6 -3 13 -2 17 4 3 5 -1 10 -10 10 -11 0 -15 5 -12 15 4 8 2 17
-3 20 -6 4 -10 1 -10 -6 0 -7 -3 -9 -6 -6 -4 4 -1 13 6 22 8 10 9 15 1 15 -6
0 -11 6 -11 14 0 8 -7 16 -15 20 -9 3 -12 12 -8 22 5 13 2 16 -9 11 -12 -4
-14 -1 -11 14 3 11 0 19 -6 19 -7 0 -9 5 -5 12 5 7 2 9 -8 6 -8 -4 -15 0 -15
8 0 7 4 11 9 8 4 -3 5 2 2 10 -3 9 -10 13 -15 10 -5 -3 -9 0 -9 6 0 6 -5 8
-12 4 -7 -4 -8 -3 -4 4 4 7 4 12 -1 12 -4 0 -14 13 -21 30 -8 17 -21 30 -29
30 -12 0 -13 3 -4 14 10 11 8 17 -6 26 -13 8 -14 10 -2 7 17 -5 52 27 42 37
-4 3 2 6 13 6 16 0 17 2 4 10 -13 8 -12 10 3 10 9 0 17 8 17 18 0 14 2 15 10
2 8 -13 10 -13 11 3 3 37 5 42 17 39 7 -1 12 5 12 13 0 8 9 19 20 25 11 6 17
16 14 25 -7 18 14 47 27 39 5 -3 6 3 2 12 -5 12 -3 15 6 9 10 -6 11 -3 2 14
-9 16 -9 19 1 16 7 -3 19 5 27 17 13 21 13 22 -2 9 -10 -7 -17 -10 -17 -7 0
13 32 56 39 51 4 -2 5 10 3 27 -3 20 -1 29 6 24 11 -7 11 12 -1 31 -5 9 -3 11
6 7 22 -8 29 12 11 30 -13 14 -14 16 0 16 8 0 18 5 22 12 4 6 3 8 -4 4 -6 -3
-13 -2 -17 4 -3 5 1 10 9 10 9 0 13 6 10 14 -3 8 -1 17 5 21 14 8 14 25 0 25
-5 0 -7 -5 -3 -12 5 -7 3 -8 -5 -4 -9 6 -8 13 5 27 9 11 14 22 11 26 -4 3 -7
0 -7 -7 0 -7 -3 -10 -7 -7 -3 4 2 16 12 27 13 15 15 19 4 15 -10 -4 -15 1 -15
15 0 11 5 19 11 16 7 -2 12 2 12 10 0 7 -5 10 -10 7 -6 -4 -8 0 -4 9 3 9 0 21
-6 28 -10 10 -8 12 7 6 16 -5 17 -4 6 9 -7 8 -9 15 -6 15 4 0 2 8 -3 18 -7 13
-6 23 1 30 9 9 8 12 -3 12 -12 0 -12 2 1 10 8 5 10 10 4 10 -17 0 -25 28 -12
36 6 4 8 3 4 -4 -3 -6 -2 -13 3 -16 5 -4 8 0 6 6 -10 43 -18 57 -29 51 -6 -4
-5 1 3 10 9 11 10 17 2 17 -6 0 -11 7 -11 16 0 8 5 12 10 9 6 -3 10 -4 10 0 0
3 -10 10 -22 15 -21 8 -21 9 -3 10 16 0 17 2 6 9 -14 9 -19 22 -23 63 -1 9 -6
14 -10 12 -8 -5 -10 0 -12 29 -1 6 -7 17 -15 23 -8 6 -16 20 -17 30 -2 10 -8
20 -14 22 -7 3 -7 9 2 20 7 9 8 13 2 9 -14 -8 -30 10 -36 38 -2 13 -10 19 -23
17 -16 -3 -17 -2 -6 12 10 12 10 16 2 16 -7 0 -10 4 -6 9 3 5 0 13 -6 17 -8 5
-10 2 -5 -7 4 -8 -4 -1 -18 15 -14 17 -22 34 -19 39 3 6 1 7 -5 3 -7 -4 -12
-2 -12 4 0 6 -4 9 -9 6 -5 -3 -12 6 -16 21 -5 22 -8 24 -17 12 -7 -11 -9 -9
-5 9 4 17 1 22 -11 20 -10 -2 -16 2 -15 9 2 7 -3 10 -11 7 -8 -3 -17 0 -22 7
-5 8 -3 10 6 4 9 -6 11 -4 6 4 -5 7 -15 10 -23 7 -8 -3 -12 -2 -9 3 8 13 -21
34 -35 25 -8 -4 -9 -3 -5 4 4 7 2 12 -4 12 -6 0 -8 5 -4 13 5 7 2 7 -10 -2
-15 -12 -17 -12 -14 0 2 8 -4 13 -14 13 -10 -1 -16 2 -13 6 3 4 -3 14 -12 21
-14 12 -16 12 -9 -1 4 -8 0 -6 -8 4 -9 11 -19 17 -22 13 -4 -3 -15 4 -25 16
-10 12 -18 18 -19 13 0 -5 -8 -2 -17 5 -15 12 -16 12 -8 -1 4 -8 -4 -4 -20 10
-16 14 -25 19 -21 13 4 -7 2 -13 -4 -13 -6 0 -13 7 -17 16 -5 13 -7 13 -14 2
-7 -10 -9 -10 -9 0 0 6 -9 12 -20 12 -11 0 -20 5 -20 10 0 7 -7 7 -21 -1 -15
-8 -19 -8 -15 0 7 10 -12 16 -41 12 -7 -1 -13 4 -13 11 0 9 -3 9 -10 -2 -6 -9
-10 -10 -10 -3 0 6 -8 11 -17 11 -10 -1 -29 2 -42 6 -17 6 -22 5 -16 -4 6 -9
2 -9 -15 0 -12 6 -24 9 -27 6 -3 -3 -14 -1 -24 5 -11 5 -19 6 -19 1 0 -4 -9
-8 -20 -9 -12 -1 -18 3 -14 9 4 7 1 7 -12 0 -27 -14 -26 -14 -57 -3 -18 7 -26
7 -22 1 3 -6 2 -10 -4 -10 -5 0 -13 5 -16 10 -4 7 -14 6 -28 -2 -12 -6 -22
-11 -22 -10 0 0 -13 5 -28 11 -18 7 -26 7 -22 1 3 -6 2 -10 -4 -10 -5 0 -13 5
-16 10 -4 7 -13 6 -26 -1 -15 -7 -24 -7 -34 1 -9 8 -15 8 -20 0 -5 -8 -10 -8
-20 0 -10 8 -15 8 -20 0 -5 -8 -10 -8 -20 0 -10 8 -15 8 -20 0 -5 -8 -10 -8
-20 0 -8 6 -16 7 -19 2 -5 -8 -29 -9 -61 -2 -5 1 -12 1 -15 0 -17 -6 -40 -7
-40 -1 0 4 -7 8 -15 8 -8 0 -11 -5 -8 -10 4 -7 -1 -8 -13 -3 -33 13 -53 15
-59 5 -4 -5 -13 -5 -25 1 -13 7 -20 6 -23 -3 -4 -9 -8 -8 -16 3 -10 13 -11 13
-11 0 0 -9 -3 -11 -8 -5 -9 13 -35 18 -27 5 3 -5 1 -10 -4 -10 -6 0 -11 6 -11
13 0 8 -4 7 -10 -3 -9 -13 -10 -13 -10 0 0 13 -1 13 -10 0 -9 -13 -10 -13 -10
0 0 13 -1 13 -10 0 -9 -13 -10 -13 -10 0 0 13 -1 13 -10 0 -9 -13 -10 -13 -10
0 0 13 -1 13 -10 0 -5 -8 -10 -10 -10 -5 0 6 -13 10 -30 11 -16 1 -27 -3 -24
-8 8 -12 -19 -5 -28 7 -5 6 -8 4 -8 -5 0 -13 -2 -13 -9 -1 -8 12 -12 12 -25 2
-13 -11 -16 -11 -16 0 0 12 -2 12 -9 0 -7 -11 -9 -11 -14 0 -4 12 -7 11 -16
-1 -10 -13 -12 -13 -21 0 -9 13 -10 13 -10 0 0 -13 -1 -13 -10 0 -8 11 -12 12
-18 3 -5 -8 -13 -9 -22 -3 -9 5 -19 5 -27 -2 -9 -7 -13 -7 -13 2 0 10 -4 10
-16 -1 -10 -8 -18 -9 -22 -3 -8 12 -53 13 -46 2 3 -4 0 -8 -5 -8 -6 0 -11 4
-11 9 0 9 -55 5 -72 -5 -6 -4 -8 -2 -5 3 4 7 -3 10 -19 9 -14 0 -30 -8 -35
-16z m-34 -2748 c-3 -3 -11 0 -18 7 -9 10 -8 11 6 5 10 -3 15 -9 12 -12z"/>
<path d="M5205 5021 c-3 -5 -2 -12 3 -15 5 -3 9 1 9 9 0 17 -3 19 -12 6z"/>
<path d="M3175 4111 c-3 -5 -2 -12 3 -15 5 -3 9 1 9 9 0 17 -3 19 -12 6z"/>
<path d="M3176 3991 c-4 -5 -2 -12 3 -15 5 -4 12 -2 15 3 4 5 2 12 -3 15 -5 4
-12 2 -15 -3z"/>
<path d="M5155 3640 c-3 -5 -1 -10 4 -10 6 0 11 5 11 10 0 6 -2 10 -4 10 -3 0
-8 -4 -11 -10z"/>
</g>
</svg>
